<?xml version="1.0" encoding="UTF-8"?>
<svg id="Layer_1" xmlns="http://www.w3.org/2000/svg" version="1.1" viewBox="0 0 164 37">
  <!-- Generator: Adobe Illustrator 29.1.0, SVG Export Plug-In . SVG Version: 2.1.0 Build 142)  -->
  <defs>
    <style>
      .st0 {
        fill: none;
      }

      .st1 {
        fill-rule: evenodd;
      }
    </style>
  </defs>
  <rect class="st0" y=".2" width="164" height="7.5"/>
  <g>
    <path class="st1" d="M26,21.3h0s0,0,0,0c0,0,0,0,0,0ZM26,21v.3c-1,1.2-2.3,2-3.7,2.4-1.5-1.2-3-2.3-4.7-3.4-.5-.3-.9-.6-1.5-1-.9-.6-2-1.3-3.1-2.1,0,0,0-.1,0-.2,0,0,0-.2,0-.3,0-4.1,3.2-7.1,7.4-7.1,2.2,0,4.2,1,5.6,2.6v.3l-2.5,2.1h-.3c-.7-.8-1.8-1.3-2.9-1.3-.9,0-1.7.3-2.3,1-.6.6-.9,1.5-.9,2.4,0,.9.3,1.7.9,2.4.6.6,1.4,1,2.3,1,1.1,0,2.1-.5,2.9-1.3h.3l2.5,2.2ZM14.5,21.3s0,0,0,0h0,0ZM18.5,23.7c-1.6-.3-3-1.2-4-2.5.1,0,.2.1.3.2.2.1.3.2.5.3,1,.7,2.1,1.3,3.2,1.9Z"/>
    <path class="st1" d="M40.4,20.1l.6,2.7v.3c-.6.4-1.2.6-1.9.6-1.7,0-2.6-.4-3.8-2.2,0,0,0,0,0,0-.6-.9-1.7-2.8-2.7-2.8h-.4v4.8h-4.2v-13.7h6.4c3.7,0,5.7,1.8,5.7,4.6,0,1.7-1,3.2-2.6,3.8.4.3.8.7,1.1,1.1,0,0,0,0,0,0,.3.4.5.9,1,.9.2,0,.4,0,.6-.1h.2ZM35.7,14.5c0,.4-.1.7-.4,1-.3.3-.7.4-1.1.4h-2v-2.8h2c.4,0,.8.1,1.1.4.3.3.4.7.4,1Z"/>
    <path class="st1" d="M48.5,9.7c4.3,0,7.5,3,7.5,7s-3.2,7-7.5,7-7.5-3-7.5-7,3.2-7,7.5-7ZM50.2,19.7c1-.6,1.7-1.7,1.6-3,0-1.2-.6-2.3-1.6-3-1-.6-2.3-.6-3.4,0-1,.6-1.7,1.7-1.6,3,0,1.2.6,2.3,1.6,3,1,.6,2.3.6,3.4,0Z"/>
  </g>
  <path d="M75.8,9.7h-3.8l-2.3,7.8-2.5-7.8h-2.4l-2.5,7.7-2.3-7.7h-3.8l-.2.3,4.9,13.7h2.4l2.7-7.6,2.8,7.6h2.4l4.9-13.7-.2-.3Z"/>
  <path class="st1" d="M84.1,9.7c4.3,0,6.9,2.8,6.9,7h0c0,4.2-2.6,7-6.9,7h-6.1v-14h6.1ZM83.9,20.3c1.7,0,3-1.3,3-3.6h0s0,0,0,0h0c0-2.3-1.3-3.6-3-3.6h-2v7.1h2Z"/>
  <path d="M113.7,13.2h4.3v-3.4h-13v3.4h4.3v10.6h4.3v-10.6Z"/>
  <path class="st1" d="M125.2,9.7c3.6,0,5.5,1.8,5.5,4.7h0c0,1.8-1,3.1-2.5,3.8l2.8,5.2-.2.3h-4.1l-2.6-4.9h-1v4.9h-4.1v-14h6.2ZM126.5,14.6c0,.4-.1.8-.4,1-.3.3-.7.4-1,.4h-1.9v-2.8h1.9c.4,0,.8.1,1,.4.3.3.4.7.4,1.1Z"/>
  <path d="M133,9.7h4v14h-4v-14Z"/>
  <path d="M146.9,16l4.7-5.9-.2-.3h-4.4l-3.9,5v-5h-4.2v14h4.2v-4.3l.8-.9,3.5,5.2h4.4l.2-.3-5.1-7.4Z"/>
  <path d="M163.9,13.2v-3.4h-9.9v14h10v-3.4h-6v-1.9h4.5v-3.2h-4.5v-1.9h6Z"/>
  <path d="M98.2,23.7c3.1,0,5.8-1.5,5.8-4.3s-2.7-3.8-5.1-4.5c-.9-.3-1.9-.6-1.9-1.2s.5-.8,1.4-.8c1.4,0,2.6.8,3.2,1.4h.3l2-2.3v-.3c-1.1-1.1-3.2-2-5.6-2s-5.6,1.7-5.6,4.2,2.5,3.8,4.7,4.4c1.4.4,2.3.4,2.3,1.2s-.7.8-1.7.8-2.9-.8-3.7-1.5h-.3l-2,2.4v.3c1.3,1.4,3.5,2.3,6.2,2.3"/>
  <path d="M28,36.7c-1-2.2-3-5.1-10.8-9.2-3.6-2-9.7-5-15.2-10.8.5,2.1,3.1,6.7,14.1,12.4,3,1.6,8.2,3.2,11.9,7.6"/>
  <path d="M27,32.7c-.9-2.7-2.5-6.1-10.3-11.1C12.9,19.1,7.3,15.9,0,7.7c.5,2.2,2.8,7.9,14.5,15.3,3.8,2.7,8.8,4.3,12.5,9.7"/>
</svg>