<svg width="137" height="28" viewBox="0 0 137 28" fill="none" xmlns="http://www.w3.org/2000/svg">
<g id="Group">
<path id="Vector" d="M9.3383 9.66007C8.8812 9.59051 7.80966 9.47044 6.51288 9.77021C6.04004 9.87951 5.16724 10.0824 4.29693 10.5991L4.29776 2.38867C4.29776 1.20202 3.33635 0.240616 2.15053 0.240616C0.964718 0.240616 0.00165617 1.20285 0.00165617 2.38867L0 25.7398C0 26.9264 0.961405 27.8879 2.14722 27.8879C3.33304 27.8879 4.29527 26.9264 4.29527 25.7406L4.2961 17.2511C4.56771 16.4181 4.74575 15.8732 5.23846 15.3117C5.50013 15.0128 6.26777 14.2352 7.50989 14.0373C9.2704 13.7583 10.5456 14.8745 10.7237 15.0352C12.0445 16.2309 12.0453 17.8523 12.0412 18.1007L12.0403 26.081C12.0403 27.1409 12.962 27.9996 14.0998 27.9996H14.1437C15.2815 27.9996 16.2031 27.1409 16.2031 26.081L16.2039 17.6262C16.1708 15.9477 15.6731 14.7346 15.3502 14.0895C14.176 11.7485 11.8606 10.0468 9.3383 9.66007Z" fill="#0E1018"/>
<path id="Vector_2" d="M88.1629 9.46147C87.8068 9.41675 87.3058 9.377 86.7104 9.41095C83.5082 9.59065 81.3445 11.6609 80.8476 12.1627C78.2491 14.7877 78.1563 18.0354 78.1489 18.6143C78.1365 19.6245 78.2615 22.3415 80.3135 24.6941C81.8049 26.4041 84.0051 27.5303 86.7204 27.7878C87.0483 27.8267 87.4508 27.8557 87.9054 27.8449H87.9128C87.9203 27.8449 87.9277 27.8449 87.9352 27.8449V27.8441C91.8114 27.7389 94.3263 24.9342 94.4853 24.7512C94.7942 24.3951 96.5738 22.045 96.6508 18.6714C96.7634 13.8271 92.9973 9.78773 88.1629 9.46147ZM92.1195 18.7733C92.0234 21.3685 89.8083 23.3923 87.1717 23.2946C84.5359 23.1969 82.4773 21.0132 82.5733 18.4188C82.6694 15.8245 84.8845 13.7998 87.5211 13.8975C90.1569 13.9952 92.2155 16.1781 92.1195 18.7733Z" fill="#0E1018"/>
<path id="Vector_3" d="M67.4014 9.77298C65.7113 9.74566 64.1131 10.2483 62.7832 11.1079C62.4718 10.2326 61.6371 9.60654 60.655 9.60654C59.4079 9.60654 58.396 10.6176 58.396 11.8647L58.3952 25.6308C58.3952 26.8779 59.4063 27.8898 60.6534 27.8898C60.7163 27.8898 60.7784 27.8865 60.8405 27.8815C60.8993 27.8865 60.9597 27.8898 61.0194 27.8898C62.0859 27.8898 62.9505 27.0518 62.9505 26.0183L62.9513 18.2335C62.991 18.0787 63.0515 17.8543 63.1343 17.5851C63.1616 17.4965 63.3637 16.8407 63.5227 16.4771C63.9458 15.5075 64.8004 14.9228 64.9635 14.8152C65.8247 14.243 66.6553 14.1651 66.8474 14.1502C67.5058 14.0997 68.0059 14.2372 68.2883 14.3167C68.5649 14.3945 69.388 14.6371 70.1167 15.3145C71.2843 16.3985 71.4218 17.865 71.4466 18.2509C71.4648 20.8552 71.483 23.4587 71.5013 26.063C71.5253 26.2386 71.6321 26.8472 72.1662 27.3375C72.7889 27.9088 73.5342 27.8973 73.6849 27.8915H73.7255C74.7921 27.8915 75.6566 27.0534 75.6566 26.02L75.6574 17.7714C75.5903 16.8995 75.3543 15.4321 74.4393 13.93C74.2008 13.5416 71.8573 9.8442 67.4014 9.77298Z" fill="#0E1018"/>
<path id="Vector_4" d="M133.221 11.4975C131.115 9.81981 128.552 9.68152 128.235 9.6691C127.94 9.65668 126.678 9.62107 125.132 10.1121C123.161 10.7382 121.929 11.8403 121.642 12.1061C118.985 14.5622 118.785 17.9176 118.76 18.4774C118.725 19.26 118.644 22.1069 120.699 24.6276C122.793 27.1971 125.672 27.6667 126.405 27.7859C127.695 27.9962 128.849 27.8853 129.23 27.8414C129.744 27.7826 130.736 27.6617 131.89 27.1764C133.419 26.5339 134.472 25.5733 135.114 24.8537C135.477 24.0024 135.406 23.0683 134.891 22.4398C134.475 21.9338 133.906 21.7914 133.719 21.7475C132.661 21.4983 131.813 22.087 131.668 22.1906C131.426 22.4473 131.08 22.7553 130.616 23.0219C129.676 23.5602 128.769 23.6306 128.289 23.6314C127.842 23.6571 126.309 23.691 124.854 22.6336C123.639 21.7508 123.154 20.5981 122.99 20.1435L136.162 20.1444C136.712 16.7517 135.621 13.4104 133.221 11.4975ZM124.91 14.9879C126.114 14.1664 127.309 14.0621 127.791 14.0464C128.192 14.0439 129.333 14.0878 130.45 14.8777C131.079 15.3224 131.491 15.8549 131.758 16.3186L123.554 16.3178C123.861 15.8872 124.299 15.4044 124.91 14.9879Z" fill="#0E1018"/>
<path id="Vector_5" d="M43.0225 17.9755C44.1122 16.8303 45.202 15.6858 46.2917 14.5406C44.9113 13.2024 43.5309 11.8651 42.1497 10.5269C41.2346 9.61185 39.7507 9.61102 38.8349 10.5269C37.9198 11.4419 37.919 12.9258 38.8349 13.8417C40.231 15.2196 41.6272 16.5976 43.0225 17.9755Z" fill="#0E1018"/>
<path id="Vector_6" d="M55.4027 10.1352C54.5017 9.27317 53.0716 9.30464 52.2087 10.2056L38.9205 24.0959C38.0585 24.9968 38.0899 26.4269 38.9909 27.2898C39.8918 28.1518 41.3219 28.1204 42.1848 27.2194L47.0879 22.0944L52.0307 27.0381C52.9457 27.9531 54.4297 27.9539 55.3455 27.0381C56.2606 26.123 56.2614 24.6391 55.3455 23.7232L50.329 18.7059L55.4739 13.3283C56.3359 12.4282 56.3045 10.9981 55.4027 10.1352Z" fill="#0E1018"/>
<path id="Vector_7" d="M114.607 -1.52588e-05C113.383 -1.52588e-05 112.391 0.992029 112.391 2.21594L112.39 11.2098C111.12 10.2997 109.603 9.7192 107.955 9.59499V9.59416C107.602 9.54862 107.098 9.50722 106.499 9.54117C103.331 9.72086 101.192 11.7894 100.7 12.2904C98.1294 14.9129 98.0375 18.1574 98.0309 18.7362C98.0193 19.7456 98.1427 22.4593 100.171 24.8102C101.638 26.5094 103.799 27.6307 106.465 27.8965C106.791 27.9379 107.194 27.9693 107.654 27.9578L107.668 27.9569C107.682 27.9569 107.696 27.9578 107.71 27.9578V27.9553C109.726 27.8915 111.361 27.0576 112.466 26.2701C112.722 27.2116 113.582 27.9039 114.604 27.9039C115.828 27.9039 116.82 26.9119 116.82 25.688L116.822 2.21511C116.823 0.992857 115.831 -1.52588e-05 114.607 -1.52588e-05ZM112.079 18.901C111.979 21.5964 109.728 23.7006 107.051 23.6012C104.375 23.5018 102.286 21.2362 102.387 18.5408C102.487 15.8454 104.738 13.7412 107.415 13.8406C110.091 13.9408 112.18 16.2056 112.079 18.901Z" fill="#0E1018"/>
<path id="Vector_8" d="M33.0514 11.5464C30.9456 9.86871 28.3827 9.73042 28.0655 9.718C27.7707 9.70558 26.5087 9.66997 24.9627 10.161C22.9918 10.7871 21.7605 11.8892 21.4723 12.1551C18.8158 14.6111 18.6154 17.9665 18.5906 18.5263C18.5558 19.3089 18.4746 22.1558 20.5291 24.6765C22.6233 27.2461 25.5026 27.7156 26.2355 27.8348C27.5256 28.0452 28.68 27.9342 29.0609 27.8903C29.5743 27.8315 30.5663 27.7106 31.7207 27.2254C33.2493 26.5828 34.3026 25.6222 34.9444 24.9026C35.3071 24.0513 35.2375 23.1172 34.7217 22.4887C34.306 21.9828 33.7371 21.8403 33.5491 21.7964C32.4916 21.5472 31.6437 22.1359 31.4988 22.2395C31.2561 22.4962 30.9108 22.8042 30.4463 23.0709C29.5064 23.6091 28.5996 23.6795 28.1193 23.6803C27.6722 23.706 26.1394 23.7399 24.6844 22.6825C23.4696 21.7997 22.9844 20.6471 22.8204 20.1924L35.9928 20.1933C36.5418 16.8006 35.4512 13.4585 33.0514 11.5464ZM24.7408 15.036C25.9448 14.2145 27.1397 14.1102 27.6217 14.0944C28.0225 14.0919 29.1636 14.1358 30.2806 14.9258C30.9092 15.3705 31.3215 15.903 31.589 16.3667L23.3844 16.3659C23.6916 15.9353 24.1288 15.4533 24.7408 15.036Z" fill="#0E1018"/>
</g>
</svg>
