<svg width="168" height="31" viewBox="0 0 168 31" fill="none" xmlns="http://www.w3.org/2000/svg">
<g clip-path="url(#clip0_4617_8485)">
<path fill-rule="evenodd" clip-rule="evenodd" d="M5.19617 8.22513C4.714 8.7073 3.68054 9.74057 2.57556 10.8455C1.79552 11.6256 0.979928 12.4414 0.296875 13.1242C4.34107 15.9416 7.98567 16.1636 9.75809 14.3914C10.4635 13.6858 11.6364 12.5129 12.8897 11.2594C14.0514 10.0977 16.189 7.96025 18.2779 5.87158C18.2779 5.87158 15.4783 6.46733 12.2106 6.46733C9.28936 6.46733 6.4009 7.02041 5.19617 8.22513Z" fill="#F4B400"/>
<path fill-rule="evenodd" clip-rule="evenodd" d="M18.6706 12.9265C18.6706 9.65875 19.2664 6.85938 19.2664 6.85938C17.1777 8.94804 15.04 11.0857 13.8784 12.2474L10.7466 15.3792C8.97415 17.1514 9.19617 20.796 12.0137 24.84L14.2924 22.5613L16.9128 19.9411C18.1175 18.7362 18.6706 15.8477 18.6706 12.9265Z" fill="#F4B400"/>
<path fill-rule="evenodd" clip-rule="evenodd" d="M16.0741 0.970787C12.2812 0.970787 8.5309 1.6888 6.96648 3.25323C5.89844 4.32107 2.74786 7.47164 0.605469 9.61404C1.27173 10.0784 1.9299 10.4881 2.57542 10.8454C3.68039 9.74046 4.71366 8.70718 5.19603 8.22502C6.40056 7.02029 9.28901 6.46721 12.2103 6.46721C15.478 6.46721 18.2775 5.87147 18.2775 5.87147C21.1613 2.98775 23.9517 0.197266 23.9517 0.197266C23.9517 0.197266 20.3168 0.970787 16.0741 0.970787Z" fill="#003580"/>
<path fill-rule="evenodd" clip-rule="evenodd" d="M19.265 6.85946C19.265 6.85946 18.6692 9.65883 18.6692 12.9265C18.6692 15.8478 18.1164 18.7362 16.9114 19.9412L14.291 22.5614C14.6483 23.2071 15.058 23.8651 15.5224 24.5315C17.6648 22.3889 20.8154 19.2384 21.8834 18.1705C23.4476 16.6063 24.1659 12.8556 24.1659 9.06269C24.1659 4.81998 24.9394 1.18506 24.9394 1.18506C24.9394 1.18506 22.1489 3.97574 19.265 6.85946Z" fill="#003580"/>
<path fill-rule="evenodd" clip-rule="evenodd" d="M42.254 23.4666C40.1473 23.4666 38.2594 22.9811 36.5898 22.0094L37.377 19.4416C38.124 19.8558 38.9371 20.1902 39.8155 20.4448C40.6939 20.6998 41.5504 20.8272 42.3851 20.8272C43.4107 20.8272 44.1858 20.6062 44.7106 20.1641C45.2353 19.7223 45.4976 19.0874 45.4976 18.2592C45.4976 17.1603 44.7661 16.4 43.3032 15.9779C43.1999 15.9463 42.9098 15.8604 42.4329 15.7211C41.9559 15.5819 41.5089 15.4464 41.0913 15.315C40.6741 15.1835 40.3739 15.0821 40.1912 15.0104C37.8459 14.1824 36.6734 12.6377 36.6734 10.3762C36.6734 8.79184 37.2358 7.56953 38.3607 6.70949C39.4854 5.84945 40.9781 5.41943 42.8383 5.41943C44.9449 5.41943 46.7614 5.8536 48.2879 6.72134L47.3101 9.08635C45.7518 8.38572 44.3051 8.0351 42.9694 8.0351C42.0077 8.0351 41.2821 8.20439 40.7932 8.54275C40.3044 8.88132 40.044 9.44467 40.0122 10.2328C40.0122 11.2044 40.4932 11.8375 41.4552 12.132C41.646 12.2035 42.1149 12.359 42.8622 12.5978C43.6092 12.8368 44.0943 12.9921 44.317 13.0636C45.9148 13.589 47.0575 14.2422 47.7453 15.0223C48.4327 15.8027 48.7766 16.8897 48.7766 18.2831C48.7766 19.9474 48.1883 21.2272 47.012 22.123C45.8354 23.0188 44.2494 23.4666 42.254 23.4666Z" fill="#003580"/>
<path fill-rule="evenodd" clip-rule="evenodd" d="M56.9692 23.4784C54.9658 23.4784 53.4055 22.8813 52.2889 21.687C51.1717 20.4926 50.6133 18.7845 50.6133 16.5629C50.6133 14.413 51.1995 12.7451 52.3723 11.5585C53.5448 10.3722 55.0889 9.77881 57.0049 9.77881C58.5391 9.77881 59.8349 10.1093 60.8923 10.7702L60.1529 13.0037C59.0718 12.4383 58.0662 12.1557 57.1361 12.1557C56.0787 12.1557 55.2459 12.5339 54.6379 13.2903C54.0297 14.047 53.7257 15.1496 53.7257 16.5989C53.7257 18.0639 54.0258 19.1786 54.6261 19.9432C55.2262 20.7075 56.0749 21.0897 57.1718 21.0897C58.3165 21.0897 59.4177 20.7513 60.4749 20.0746L60.7732 22.4512C60.2244 22.8177 59.6561 23.0804 59.0679 23.2396C58.4795 23.3988 57.78 23.4784 56.9692 23.4784Z" fill="#003580"/>
<path fill-rule="evenodd" clip-rule="evenodd" d="M67.5577 21.257C68.2808 21.257 68.9111 21.0838 69.4476 20.7373C69.9843 20.3911 70.3677 19.9711 70.5984 19.4773V16.9452C70.5743 16.9452 70.3659 16.9612 69.9725 16.993C69.5788 17.0248 69.366 17.0408 69.3344 17.0408C68.0705 17.1524 67.144 17.3912 66.556 17.7574C65.9676 18.1238 65.6736 18.7129 65.6736 19.5249C65.6736 20.0825 65.8364 20.5106 66.1625 20.809C66.4882 21.1077 66.9532 21.257 67.5577 21.257ZM66.7112 23.4784C65.4948 23.4784 64.5109 23.1422 63.7597 22.4692C63.0085 21.7964 62.6328 20.827 62.6328 19.5608C62.6328 18.1994 63.078 17.1901 63.9685 16.5331C64.8588 15.8763 66.2023 15.4601 67.9989 15.2851C68.2452 15.2531 68.5117 15.2213 68.7979 15.1893C69.0841 15.1577 69.4059 15.1259 69.7638 15.0939C70.1215 15.0623 70.4036 15.0341 70.6104 15.0103V14.3174C70.6104 13.5214 70.4273 12.942 70.0619 12.5798C69.696 12.2175 69.1396 12.0362 68.3925 12.0362C67.3271 12.0362 66.0115 12.3348 64.4453 12.932C64.4374 12.9081 64.3063 12.5458 64.0521 11.8452C63.7974 11.1445 63.6663 10.7862 63.6586 10.7702C65.2005 10.1093 66.87 9.77881 68.6667 9.77881C70.4316 9.77881 71.7154 10.163 72.5183 10.9314C73.3213 11.7 73.7226 12.944 73.7226 14.6639V23.2277H71.4094C71.4013 23.1959 71.314 22.9291 71.1471 22.4273C70.98 21.9258 70.8966 21.6592 70.8966 21.6272C70.2448 22.2644 69.6068 22.7319 68.9828 23.0306C68.3586 23.3291 67.6014 23.4784 66.7112 23.4784Z" fill="#003580"/>
<path fill-rule="evenodd" clip-rule="evenodd" d="M81.4615 23.4069C80.5629 23.4069 79.8178 23.3013 79.2256 23.0903C78.6332 22.8795 78.1661 22.543 77.8244 22.0811C77.4824 21.6195 77.244 21.07 77.1089 20.4328C76.9736 19.7959 76.9062 19.0036 76.9062 18.0561V6.50721C76.9062 5.8208 77.4629 5.26416 78.1493 5.26416H80.0306V17.9962C80.0306 19.1749 80.1694 19.9729 80.4477 20.3911C80.7259 20.8093 81.2665 21.018 82.0694 21.018C82.4671 21.018 82.9718 20.9746 83.5839 20.8867L83.6674 23.1203C83.6595 23.1203 83.562 23.1401 83.3751 23.18C83.1884 23.2199 83.0095 23.2537 82.8388 23.2815C82.6676 23.3094 82.4513 23.337 82.1889 23.3651C81.9264 23.3929 81.6839 23.4069 81.4615 23.4069Z" fill="#003580"/>
<path fill-rule="evenodd" clip-rule="evenodd" d="M87.7352 15.3327H93.459C93.459 14.2659 93.2162 13.4455 92.7315 12.8723C92.2465 12.2991 91.5748 12.0125 90.7163 12.0125C89.9131 12.0125 89.2356 12.2912 88.6831 12.8486C88.1305 13.4058 87.8144 14.2341 87.7352 15.3327ZM91.2048 23.4784C89.0982 23.4784 87.4587 22.8714 86.2861 21.6572C85.1134 20.4428 84.5273 18.7648 84.5273 16.6226C84.5273 14.5367 85.0798 12.8764 86.1846 11.6421C87.2896 10.4079 88.7961 9.78691 90.7041 9.77881C92.5087 9.77881 93.9097 10.3443 94.9077 11.475C95.905 12.6056 96.4041 14.1067 96.4041 15.9778C96.4041 16.1131 96.402 16.3322 96.398 16.6346C96.3941 16.9374 96.3921 17.1602 96.3921 17.3037H87.6754C87.707 18.5299 88.043 19.4794 88.6829 20.152C89.3227 20.8252 90.2033 21.1614 91.3243 21.1614C92.7552 21.1614 94.1304 20.7871 95.4501 20.0386L95.8913 22.2602C94.5796 23.0725 93.0175 23.4784 91.2048 23.4784Z" fill="#003580"/>
<path fill-rule="evenodd" clip-rule="evenodd" d="M99.778 23.2278V12.1796H97.7031V10.1014H99.778V9.37293C99.778 8.5767 99.8514 7.89601 99.9986 7.33049C100.146 6.76516 100.386 6.28142 100.72 5.87925C101.054 5.47728 101.501 5.17862 102.062 4.98346C102.622 4.7885 103.312 4.69092 104.13 4.69092C104.925 4.69092 105.736 4.76677 106.563 4.91788L106.289 7.24694C105.637 7.15943 105.124 7.11558 104.751 7.11558C104.083 7.11558 103.608 7.27676 103.326 7.59913C103.043 7.92169 102.902 8.45739 102.902 9.20563V10.1014H105.979V12.1796H102.902V23.2278H99.778Z" fill="#003580"/>
<path fill-rule="evenodd" clip-rule="evenodd" d="M117.462 22.1946C116.42 23.0507 115.049 23.4786 113.348 23.4786C111.647 23.4786 110.277 23.0529 109.24 22.2006C108.202 21.3488 107.684 20.0987 107.684 18.4503V10.1016H110.82V18.3308C110.82 19.3101 111.024 20.0191 111.434 20.4568C111.843 20.8949 112.493 21.1138 113.383 21.1138C114.258 21.1138 114.896 20.8969 115.297 20.4627C115.699 20.0289 115.9 19.3182 115.9 18.3308V10.1016H119.024V18.4503C119.024 20.0908 118.503 21.3388 117.462 22.1946Z" fill="#003580"/>
<path fill-rule="evenodd" clip-rule="evenodd" d="M126.06 23.4663C124.129 23.4663 122.582 23.1361 121.422 22.4749L121.744 20.122C122.268 20.4088 122.936 20.6656 123.747 20.8925C124.558 21.1195 125.297 21.2329 125.965 21.2329C126.657 21.2329 127.195 21.1035 127.581 20.8447C127.966 20.5862 128.163 20.2057 128.171 19.704C128.171 19.2503 127.99 18.892 127.628 18.6293C127.267 18.3666 126.577 18.0398 125.56 17.6499C125.209 17.5225 124.983 17.4388 124.88 17.3989C123.671 16.9291 122.801 16.4057 122.268 15.8283C121.736 15.2511 121.469 14.4687 121.469 13.4813C121.469 12.287 121.9 11.3715 122.763 10.7343C123.626 10.0972 124.828 9.77881 126.37 9.77881C128.04 9.77881 129.507 10.0935 130.77 10.7222L129.995 12.8842C128.747 12.303 127.559 12.0123 126.43 12.0123C125.802 12.0123 125.311 12.1177 124.957 12.3287C124.603 12.5399 124.427 12.8603 124.427 13.2901C124.427 13.6964 124.598 14.013 124.939 14.2398C125.281 14.4666 125.949 14.7634 126.943 15.1297C126.974 15.1376 127.078 15.1735 127.253 15.2371C127.428 15.3009 127.563 15.3527 127.658 15.3924C128.858 15.8305 129.741 16.3537 130.305 16.9629C130.87 17.5721 131.152 18.3666 131.152 19.3459C131.144 20.6597 130.699 21.675 129.817 22.3916C128.934 23.1082 127.682 23.4663 126.06 23.4663Z" fill="#003580"/>
<path fill-rule="evenodd" clip-rule="evenodd" d="M133.692 23.2282H136.816V10.1018H133.692V23.2282ZM133.691 8.19066V6.75818C133.691 6.07177 134.248 5.51514 134.934 5.51514H136.827V8.19066H133.691Z" fill="#003580"/>
<path fill-rule="evenodd" clip-rule="evenodd" d="M145.783 21.1018C146.841 21.1018 147.636 20.7156 148.168 19.9433C148.701 19.1709 148.967 18.064 148.967 16.6226C148.967 15.1656 148.701 14.0547 148.168 13.2903C147.636 12.5261 146.833 12.1438 145.76 12.1438C144.702 12.1438 143.905 12.528 143.369 13.2962C142.832 14.065 142.564 15.1775 142.564 16.6347C142.564 18.0681 142.834 19.1709 143.375 19.9433C143.915 20.7156 144.718 21.1018 145.783 21.1018ZM145.7 23.4784C143.76 23.4784 142.234 22.8497 141.121 21.5914C140.008 20.3333 139.451 18.6771 139.451 16.6226C139.451 14.5049 140.008 12.8346 141.121 11.6123C142.234 10.39 143.804 9.77881 145.831 9.77881C147.787 9.77881 149.319 10.402 150.428 11.648C151.537 12.8944 152.091 14.5525 152.091 16.6226C152.091 18.717 151.531 20.3831 150.41 21.6212C149.289 22.8593 147.719 23.4784 145.7 23.4784Z" fill="#003580"/>
<path fill-rule="evenodd" clip-rule="evenodd" d="M154.643 23.2275V10.1012H157.158L157.504 11.7614C158.84 10.4397 160.323 9.77881 161.952 9.77881C163.478 9.77881 164.621 10.2189 165.38 11.0985C166.14 11.9785 166.519 13.2545 166.519 14.9266V23.2275H163.383V15.3088C163.375 14.2499 163.204 13.4574 162.87 12.932C162.537 12.4063 161.936 12.1436 161.07 12.1436C160.394 12.1436 159.776 12.3169 159.215 12.6631C158.655 13.0096 158.248 13.4455 157.993 13.9712C157.842 14.592 157.767 15.5476 157.767 16.8375V23.2275H154.643Z" fill="#003580"/>
</g>
<defs>
<clipPath id="clip0_4617_8485">
<rect width="168" height="31" fill="white"/>
</clipPath>
</defs>
</svg>
